<?xml version="1.0" standalone="no"?>
<!DOCTYPE svg PUBLIC "-//W3C//DTD SVG 20010904//EN"
 "http://www.w3.org/TR/2001/REC-SVG-20010904/DTD/svg10.dtd">
<svg version="1.0" xmlns="http://www.w3.org/2000/svg"
 width="800.000000pt" height="800.000000pt" viewBox="0 0 800.000000 800.000000"
 preserveAspectRatio="xMidYMid meet">
<metadata>
Created by potrace 1.11, written by Peter Selinger 2001-2013
</metadata>
<g transform="translate(0.000000,800.000000) scale(0.100000,-0.100000)"
fill="#000000" stroke="none">
<path d="M0 4000 l0 -4000 4000 0 4000 0 0 4000 0 4000 -4000 0 -4000 0 0
-4000z m1349 1014 c157 -28 293 -90 415 -189 86 -71 105 -151 49 -211 -35 -38
-71 -28 -188 51 -193 129 -286 159 -495 159 -155 0 -224 -14 -340 -71 -56 -27
-94 -56 -150 -112 -88 -89 -137 -180 -178 -330 -24 -90 -26 -110 -26 -316 0
-207 2 -226 27 -319 40 -149 88 -237 177 -326 129 -130 253 -178 480 -187 151
-6 299 11 435 50 l80 23 3 307 2 307 -225 0 c-246 0 -270 5 -293 55 -16 34
-15 50 3 84 24 47 53 51 367 51 314 0 332 -3 356 -55 9 -19 12 -136 12 -423 0
-462 2 -449 -90 -494 -160 -78 -500 -127 -744 -106 -348 29 -606 204 -752 512
-105 220 -130 592 -60 870 129 507 575 770 1135 670z m2910 -11 c23 -21 119
-230 397 -858 201 -456 368 -834 371 -838 6 -11 -31 -93 395 873 262 596 357
802 379 823 43 40 105 38 154 -4 28 -25 35 -38 35 -68 0 -44 -823 -1880 -862
-1922 -13 -15 -43 -33 -66 -39 -35 -11 -48 -11 -87 5 -25 9 -53 28 -62 41 -21
33 -833 1840 -845 1881 -11 41 13 97 51 118 45 24 106 19 140 -12z m2008 2
c12 -8 162 -193 334 -410 172 -217 316 -395 320 -395 4 0 148 178 319 395 171
217 321 401 333 410 37 26 92 19 132 -16 30 -27 35 -37 35 -74 0 -51 16 -29
-389 -537 -156 -196 -283 -359 -283 -363 1 -3 159 -205 351 -447 241 -303 353
-452 357 -474 7 -37 -14 -85 -48 -108 -35 -25 -101 -20 -135 8 -15 13 -172
208 -348 434 -176 225 -323 408 -327 405 -4 -2 -154 -190 -333 -418 -180 -228
-336 -422 -348 -430 -31 -22 -93 -19 -128 6 -16 11 -33 36 -40 59 -10 33 -9
44 7 74 15 29 240 314 662 842 l41 50 -340 428 c-296 375 -339 433 -339 463 0
68 42 112 105 113 22 0 50 -7 62 -15z m-2817 -24 c108 -32 187 -77 256 -146
100 -99 144 -222 144 -405 0 -52 -7 -123 -15 -158 -49 -205 -211 -352 -437
-395 -32 -6 -58 -14 -58 -18 0 -4 13 -12 30 -17 66 -23 142 -120 330 -417 198
-312 219 -353 201 -397 -13 -35 -66 -68 -107 -68 -62 0 -88 32 -305 375 -114
182 -228 353 -253 382 -28 31 -68 62 -103 80 l-58 28 -252 3 -253 3 0 -393 c0
-372 -1 -395 -20 -425 -40 -66 -145 -66 -194 0 -21 28 -21 31 -24 955 -2 654
0 938 8 965 7 25 22 45 43 58 31 19 47 20 512 16 464 -3 482 -4 555 -26z"/>
<path d="M2570 4425 l0 -385 343 0 c375 0 437 7 528 56 68 37 122 99 149 170
19 48 23 78 23 159 -1 163 -51 262 -165 325 -98 53 -154 60 -535 60 l-343 0 0
-385z"/>
</g>
</svg>
